<svg width="200" height="40" viewBox="0 0 200 40" fill="none" xmlns="http://www.w3.org/2000/svg">
<g clip-path="url(#clip0_115_2778)">
<path d="M31.5511 24.9061L29.4691 22.7559C28.9774 23.0751 28.3033 23.0751 27.8116 22.7559L20.7349 30.0643C20.8913 30.3181 20.9732 30.6143 20.9732 30.922C20.9732 31.2298 20.8913 31.5259 20.7349 31.7798L22.8169 33.93C23.0627 33.7685 23.3495 33.6838 23.6475 33.6838C23.9455 33.6838 24.2323 33.7685 24.4781 33.93L31.5548 26.6216C31.2382 26.1023 31.2382 25.4292 31.5548 24.9099L31.5511 24.9061ZM27.2976 29.268L27.0406 29.5334C27.0406 29.5334 27.022 29.545 27.0145 29.5334L26.8395 29.3526C26.7166 29.418 26.5825 29.4411 26.4372 29.4219C26.292 29.3988 26.1691 29.3373 26.061 29.2257L25.8636 29.0218C25.8636 29.0218 25.8562 29.0103 25.8636 29.0026L26.1355 28.7218C26.1355 28.7218 26.1467 28.7141 26.1542 28.7218L26.3553 28.9218C26.4112 28.9795 26.4745 29.0103 26.5452 29.0065C26.616 29.0065 26.6756 28.9795 26.7203 28.9295C26.7687 28.8795 26.7911 28.818 26.7911 28.7411C26.7911 28.668 26.7613 28.6026 26.7091 28.5526C26.657 28.5026 26.6086 28.4679 26.5527 28.4564C26.4968 28.4449 26.4223 28.4487 26.3329 28.4718L25.953 28.5833C25.8301 28.6218 25.7109 28.6333 25.5992 28.6141C25.4875 28.5949 25.3832 28.5333 25.2863 28.4333C25.1746 28.3179 25.1075 28.1872 25.0889 28.041C25.0666 27.8948 25.0889 27.7525 25.156 27.6217L24.9809 27.4409C24.9809 27.4409 24.9735 27.4255 24.9809 27.414L25.2379 27.1486C25.2379 27.1486 25.2528 27.1409 25.2603 27.1486L25.4316 27.3255C25.5582 27.2563 25.696 27.2294 25.8487 27.2524C25.9977 27.2755 26.1281 27.3409 26.2361 27.4525L26.3478 27.5679C26.3478 27.5679 26.3553 27.5832 26.3478 27.5909L26.0797 27.8679C26.0797 27.8679 26.0685 27.8717 26.0573 27.8679L25.9456 27.7525C25.8934 27.6986 25.8301 27.6717 25.7556 27.6717C25.6811 27.6717 25.6178 27.6948 25.5694 27.7448C25.521 27.7948 25.4949 27.8602 25.4986 27.9371C25.5024 28.0141 25.5284 28.0756 25.5768 28.1218C25.6364 28.1833 25.7296 28.1987 25.8487 28.1641C25.8897 28.1525 25.953 28.1371 26.0387 28.1102C26.1244 28.0833 26.2026 28.0602 26.2733 28.0371C26.4149 27.9948 26.549 27.991 26.6719 28.0333C26.7948 28.0756 26.9065 28.1448 27.0071 28.2487C27.1188 28.3641 27.1822 28.4949 27.197 28.6449C27.2157 28.7949 27.1896 28.9334 27.1226 29.0642L27.2939 29.2411C27.2939 29.2411 27.3013 29.2565 27.2939 29.2642L27.2976 29.268Z" fill="white"/>
<path d="M36.0691 25.691L28.713 18.0941C28.5789 17.9556 28.3592 17.9556 28.2251 18.0941L16.2207 30.4914C16.0866 30.6299 16.0866 30.8569 16.2207 30.9953L23.5768 38.5922C23.7109 38.7307 23.9306 38.7307 24.0647 38.5922L36.0691 26.1949C36.2032 26.0564 36.2032 25.8294 36.0691 25.691ZM32.2588 25.1332C32.0949 25.3025 32.0055 25.5256 32.0055 25.7641C32.0055 26.0025 32.0949 26.2256 32.2588 26.3949V26.8988L24.7463 34.6572H24.2584C23.9194 34.3072 23.3719 34.3072 23.033 34.6572H22.5451L20.0272 32.057V31.5531C20.3662 31.203 20.3662 30.6376 20.0272 30.2876V29.7837L27.5398 22.0252H28.0277C28.1916 22.1945 28.4076 22.2868 28.6385 22.2868C28.8694 22.2868 29.0855 22.1945 29.2493 22.0252H29.7373L32.2551 24.6255V25.1294L32.2588 25.1332Z" fill="white"/>
<path d="M16.3771 23.4985C16.8501 23.4408 17.0512 23.4331 17.338 23.8177L17.9749 24.4755C18.1835 24.6909 18.7273 25.2486 18.9284 25.4602C18.9359 25.6718 18.947 25.8795 18.921 26.1256C18.6863 26.1526 18.4815 26.141 18.2766 26.1333C18.0755 25.9256 17.5317 25.364 17.3231 25.1486L16.6862 24.4909C16.3137 24.1947 16.3212 23.9831 16.3771 23.4985Z" fill="white"/>
<path d="M15.1853 24.7294C15.6583 24.6717 15.8594 24.664 16.1462 25.0487L16.7831 25.7064C16.9917 25.9218 17.5355 26.4796 17.7366 26.6912C17.7441 26.9027 17.7553 27.1104 17.7292 27.3566C17.4945 27.3835 17.2897 27.372 17.0848 27.3643C16.8837 27.1566 16.3399 26.595 16.1313 26.3796L15.4944 25.7218C15.122 25.4256 15.1294 25.2141 15.1853 24.7294Z" fill="white"/>
<path d="M22.7126 16.9516C23.1857 16.8939 23.3868 16.8862 23.6736 17.2709L24.3105 17.9286C24.5191 18.144 25.0629 18.7018 25.264 18.9133C25.2714 19.1249 25.2826 19.3326 25.2565 19.5788C25.0219 19.6057 24.817 19.5942 24.6122 19.5865C24.4111 19.3788 23.8673 18.8172 23.6587 18.6018L23.0218 17.944C22.6493 17.6478 22.6568 17.4363 22.7126 16.9516Z" fill="white"/>
<path d="M21.5207 18.1826C21.9938 18.1249 22.1949 18.1172 22.4817 18.5018L23.1186 19.1596C23.3272 19.375 23.871 19.9327 24.0721 20.1443C24.0795 20.3558 24.0907 20.5635 24.0646 20.8097C23.83 20.8367 23.6251 20.8251 23.4203 20.8174C23.2192 20.6097 22.6754 20.0481 22.4668 19.8327L21.8299 19.175C21.4574 18.8788 21.4649 18.6672 21.5207 18.1826Z" fill="white"/>
<path d="M18.3884 15.9899L20.1502 17.8016C20.2172 17.8709 20.2768 17.8747 20.3289 17.8209L22.5637 15.5129C22.6159 15.4591 22.6084 15.3976 22.5451 15.3283L20.7833 13.5166L18.3922 15.9861L18.3884 15.9899Z" fill="white"/>
<path d="M13.4872 19.529L5.9114 11.6744L10.9731 12.6553L10.0457 7.4086L17.6514 15.2324L20.0425 12.763L8.91716 1.34263C8.86501 1.28878 8.81287 1.28878 8.76072 1.34263L6.32856 3.85441C6.27641 3.90827 6.25779 3.9852 6.26896 4.07751L7.08093 8.6318L2.671 7.79325C2.57788 7.77787 2.50712 7.80095 2.45497 7.8548L0.0414277 10.3473C-0.0107168 10.4012 -0.0107168 10.455 0.0414277 10.5089L11.0998 21.9946L13.491 19.5252L13.4872 19.529Z" fill="white"/>
<path d="M13.7625 24.6025L15.9972 22.2946C16.0494 22.2407 16.0419 22.1792 15.9786 22.1099L14.2243 20.2905L11.8331 22.76L13.5874 24.5794C13.6545 24.6486 13.7141 24.6525 13.7662 24.5986L13.7625 24.6025Z" fill="white"/>
<path d="M47.8761 0H47.5037V40H47.8761V0Z" fill="white"/>
<path d="M81.7514 30.3452C80.7458 30.3452 79.8295 30.0798 78.9989 29.5529C78.1684 29.0259 77.5054 28.322 77.0026 27.445C76.4997 26.5718 76.2465 25.6025 76.2465 24.5447L76.2725 15.3976C76.2725 14.3399 76.5184 13.3782 77.0137 12.5128C77.5054 11.6473 78.1721 10.9549 79.0101 10.4356C79.8482 9.91635 80.7607 9.65479 81.7477 9.65479C82.7347 9.65479 83.6659 9.91635 84.4853 10.4356C85.3047 10.9549 85.9602 11.6473 86.4556 12.5128C86.9472 13.3782 87.1968 14.3399 87.1968 15.3976L87.2266 24.5447C87.2266 25.6025 86.9808 26.568 86.4854 27.445C85.99 28.322 85.3308 29.022 84.5002 29.5529C83.6696 30.0837 82.7533 30.3452 81.7477 30.3452H81.7514ZM81.7514 26.8526C82.3101 26.8526 82.798 26.618 83.2189 26.1448C83.6361 25.6717 83.8484 25.1409 83.8484 24.5447L83.8186 15.3976C83.8186 14.763 83.6249 14.2245 83.2301 13.7821C82.839 13.3398 82.3436 13.1167 81.7477 13.1167C81.1518 13.1167 80.675 13.3321 80.2653 13.7667C79.8556 14.1975 79.6507 14.7437 79.6507 15.3976V24.5447C79.6507 25.1794 79.8556 25.7217 80.2653 26.1756C80.675 26.6295 81.1667 26.8526 81.7477 26.8526H81.7514Z" fill="white"/>
<path d="M89.0776 30.0568C88.9286 30.0568 88.8541 29.9914 88.8541 29.8568L88.8243 10.2049C88.8243 10.0511 88.8988 9.97412 89.0478 9.97412H91.5619L96.2847 21.3444L96.1432 10.2049C96.1432 10.0511 96.2289 9.97412 96.3965 9.97412H99.1638C99.2756 9.97412 99.3314 10.0511 99.3314 10.2049L99.3575 29.8837C99.3575 29.9991 99.3128 30.0568 99.2197 30.0568H96.7615L91.9269 19.4366L92.1243 29.826C92.1243 29.9799 92.0387 30.0568 91.8711 30.0568H89.0776Z" fill="white"/>
<path d="M101.346 30.0568C101.272 30.0568 101.235 30.0106 101.235 29.9106L101.261 10.0856C101.261 10.0087 101.298 9.97021 101.373 9.97021H110.341C110.416 9.97021 110.453 10.0202 110.453 10.1164V13.3475C110.453 13.4244 110.416 13.4629 110.341 13.4629H104.613V17.9633H110.341C110.416 17.9633 110.453 18.0018 110.453 18.0787L110.483 21.3405C110.483 21.4175 110.446 21.4559 110.371 21.4559H104.617V26.5064H110.371C110.446 26.5064 110.483 26.5564 110.483 26.6526V29.9414C110.483 30.0183 110.446 30.0568 110.371 30.0568H101.346Z" fill="white"/>
<path d="M115.381 30.0568C115.325 30.0568 115.295 30.0184 115.295 29.9414L115.325 21.7483L111.582 10.0895C111.563 10.0126 111.593 9.97412 111.664 9.97412H114.766C114.859 9.97412 114.915 10.0126 114.934 10.0895L117.001 17.8518L119.098 10.0895C119.117 10.0126 119.161 9.97412 119.24 9.97412H122.368C122.443 9.97412 122.469 10.0126 122.45 10.0895L118.677 21.6329L118.707 29.9414C118.707 30.0184 118.67 30.0568 118.595 30.0568H115.381Z" fill="white"/>
<path d="M141.941 29.9106L145.405 10.0856C145.423 10.0087 145.468 9.97021 145.546 9.97021H149.599C149.673 9.97021 149.722 10.0087 149.74 10.0856L153.066 29.9106C153.085 30.0068 153.048 30.0568 152.955 30.0568H149.852C149.778 30.0568 149.729 30.0106 149.711 29.9106L149.401 27.8027H145.602L145.293 29.9106C145.275 30.0068 145.226 30.0568 145.152 30.0568H142.049C141.975 30.0568 141.937 30.0106 141.937 29.9106H141.941ZM146.161 24.7178H148.843L147.696 16.6093L147.528 15.54L147.416 16.6093L146.157 24.7178H146.161Z" fill="white"/>
<path d="M159.305 30.3452C158.299 30.3452 157.387 30.0875 156.567 29.5644C155.748 29.0451 155.093 28.3489 154.597 27.4719C154.102 26.5987 153.856 25.6217 153.856 24.5447V15.3976C153.856 14.3591 154.102 13.4013 154.597 12.5281C155.093 11.6511 155.752 10.9549 156.582 10.4356C157.409 9.91635 158.318 9.65479 159.305 9.65479C160.292 9.65479 161.257 9.90866 162.084 10.4202C162.91 10.9318 163.57 11.6165 164.054 12.482C164.538 13.3474 164.78 14.3206 164.78 15.3976V16.7247C164.78 16.8016 164.732 16.8401 164.639 16.8401H161.51C161.436 16.8401 161.398 16.8016 161.398 16.7247V15.6284C161.398 14.8976 161.197 14.2898 160.799 13.809C160.396 13.3282 159.901 13.0859 159.305 13.0859C158.765 13.0859 158.285 13.3167 157.867 13.7783C157.45 14.2398 157.238 14.7784 157.238 15.3938V24.5408C157.238 25.1755 157.443 25.7179 157.852 26.1718C158.262 26.6257 158.746 26.8487 159.305 26.8487C159.901 26.8487 160.4 26.6295 160.799 26.1833C161.197 25.7409 161.398 25.1909 161.398 24.537V23.1215H159.443C159.35 23.1215 159.301 23.0753 159.301 22.9753V19.7442C159.301 19.6481 159.346 19.598 159.443 19.598H164.668C164.743 19.598 164.78 19.6481 164.78 19.7442V24.5331C164.78 25.6102 164.534 26.5872 164.039 27.4603C163.544 28.3374 162.888 29.0336 162.069 29.5529C161.249 30.0721 160.326 30.3337 159.301 30.3337L159.305 30.3452Z" fill="white"/>
<path d="M166.564 30.0568C166.415 30.0568 166.341 29.9914 166.341 29.8568L166.315 10.2049C166.315 10.0511 166.389 9.97412 166.538 9.97412H169.052L173.775 21.3444L173.634 10.2049C173.634 10.0511 173.719 9.97412 173.887 9.97412H176.654C176.766 9.97412 176.822 10.0511 176.822 10.2049L176.852 29.8837C176.852 29.9991 176.807 30.0568 176.71 30.0568H174.252L169.417 19.4366L169.615 29.826C169.615 29.9799 169.529 30.0568 169.365 30.0568H166.572H166.564Z" fill="white"/>
<path d="M178.833 30.0568C178.759 30.0568 178.721 30.0106 178.721 29.9106L178.748 10.0856C178.748 10.0087 178.785 9.97021 178.859 9.97021H187.828C187.903 9.97021 187.94 10.0202 187.94 10.1164V13.3475C187.94 13.4244 187.903 13.4629 187.828 13.4629H182.1V17.9633H187.828C187.903 17.9633 187.94 18.0018 187.94 18.0787L187.97 21.3405C187.97 21.4175 187.932 21.4559 187.858 21.4559H182.103V26.5064H187.858C187.932 26.5064 187.97 26.5564 187.97 26.6526V29.9414C187.97 30.0183 187.932 30.0568 187.858 30.0568H178.833Z" fill="white"/>
<path d="M192.987 30.0568C192.912 30.0568 192.875 30.0106 192.875 29.9106V13.4629H189.243C189.15 13.4629 189.102 13.4167 189.102 13.3167L189.132 10.0856C189.132 10.0087 189.169 9.97021 189.243 9.97021H199.862C199.955 9.97021 200.004 10.0087 200.004 10.0856V13.3167C200.004 13.4129 199.967 13.4629 199.892 13.4629H196.231L196.261 29.9106C196.261 30.0068 196.223 30.0568 196.149 30.0568H192.99H192.987Z" fill="white"/>
<path d="M71.3188 27.3486V29.9181C71.3225 30.0143 71.3598 30.0643 71.4342 30.0643H74.5927C74.6672 30.0643 74.7045 30.0181 74.7045 29.9181L74.697 27.3486H71.3151H71.3188Z" fill="white"/>
<path d="M65.4302 26.2756L65.4525 15.1899L68.3614 19.5788L71.2964 15.1899L71.3188 26.2756H74.7007L74.656 10.0817C74.656 10.0048 74.6188 9.96631 74.5443 9.96631H71.1065C71.032 9.96631 70.9649 10.0048 70.909 10.0817L68.3651 13.8936L65.8212 10.0817C65.7654 10.0048 65.6983 9.96631 65.6238 9.96631H62.2121C62.1376 9.96631 62.1004 10.0048 62.1004 10.0817L62.0557 26.2756H65.4376H65.4302Z" fill="white"/>
<path d="M62.1525 30.0643H65.311C65.3855 30.0643 65.4227 30.0181 65.4227 29.9181V27.3486H62.0482L62.0408 29.9181C62.0408 30.0143 62.078 30.0643 62.1525 30.0643Z" fill="white"/>
<path d="M137.397 27.3486V29.9181C137.401 30.0143 137.438 30.0643 137.512 30.0643H140.671C140.745 30.0643 140.783 30.0181 140.783 29.9181L140.775 27.3486H137.393H137.397Z" fill="white"/>
<path d="M131.508 26.2756L131.531 15.1899L134.44 19.5788L137.375 15.1899L137.397 26.2756H140.779L140.734 10.0817C140.734 10.0048 140.697 9.96631 140.622 9.96631H137.185C137.11 9.96631 137.043 10.0048 136.987 10.0817L134.443 13.8936L131.899 10.0817C131.843 10.0048 131.776 9.96631 131.702 9.96631H128.29C128.216 9.96631 128.178 10.0048 128.178 10.0817L128.134 26.2756H131.516H131.508Z" fill="white"/>
<path d="M128.231 30.0643H131.389C131.464 30.0643 131.501 30.0181 131.501 29.9181V27.3486H128.126L128.119 29.9181C128.119 30.0143 128.156 30.0643 128.231 30.0643Z" fill="white"/>
</g>
<defs>
<clipPath id="clip0_115_2778">
<rect width="200" height="40" fill="white"/>
</clipPath>
</defs>
</svg>
