<svg width="37" height="39" viewBox="0 0 37 39" fill="none" xmlns="http://www.w3.org/2000/svg">
<path d="M28.625 9.375H9.375C8.91087 9.375 8.46575 9.55937 8.13756 9.88756C7.80937 10.2158 7.625 10.6609 7.625 11.125V26.875C7.625 27.3391 7.80937 27.7842 8.13756 28.1124C8.46575 28.4406 8.91087 28.625 9.375 28.625H28.625C29.0891 28.625 29.5342 28.4406 29.8624 28.1124C30.1906 27.7842 30.375 27.3391 30.375 26.875V11.125C30.375 10.6609 30.1906 10.2158 29.8624 9.88756C29.5342 9.55937 29.0891 9.375 28.625 9.375ZM28.625 11.125V15.5H9.375V11.125H28.625ZM9.375 17.25H15.5V26.875H9.375V17.25ZM28.625 26.875H17.25V17.25H28.625V26.875Z" fill="white"/>
</svg>
