<svg width="37" height="39" viewBox="0 0 37 39" fill="none" xmlns="http://www.w3.org/2000/svg">
<path d="M16.9851 35.5162L19.7136 36M16.0785 32.4331L20.7627 33.308M21.7981 27.7081C22.232 26.0586 23.0935 24.8612 24.2877 23.345C25.3043 22.0536 25.9133 20.4168 25.9133 18.634C25.9133 14.4055 22.4883 10.9884 18.3018 11.0887C14.2503 11.1852 10.9929 14.6264 11.0492 18.7419C11.0729 20.5032 11.6919 22.1184 12.7098 23.3894C14.2116 25.265 15.1507 26.6694 15.4108 29.0731L15.4333 29.2763L21.5692 30.4153M18.4994 6.82723V3M26.7949 10.3167L29.4596 7.60943M30.2299 18.7394H34M26.7949 27.1633L29.4596 29.8693M10.2051 27.1633L7.53915 29.8693M6.76887 18.7394H3M10.2051 10.3167L7.53915 7.60943M18.7044 14.0068V15.9623M16.031 22.992C16.6124 24.0498 17.7266 24.4434 18.5256 24.4434C19.3247 24.4434 21.1416 24.1234 21.1416 22.2542C21.1416 20.3851 18.7982 20.2136 18.7982 20.2136L18.5869 20.1882C18.5869 20.1882 16.186 20.0155 16.186 18.1476C16.186 16.7445 17.2089 16.215 18.0567 16.0372C18.5444 15.9356 19.0521 15.9559 19.5285 16.1032C20.0087 16.2505 20.5014 16.5477 20.8827 17.2423M18.767 26.3926V24.4383" stroke="white" stroke-width="1.5" stroke-linecap="round" stroke-linejoin="round"/>
</svg>
