<svg width="37" height="39" viewBox="0 0 37 39" fill="none" xmlns="http://www.w3.org/2000/svg">
<path d="M32.4281 29.5166H5.57192M30.7123 33H7.28886M6.63357 10H31.3664C32.2683 10 33 10.7141 33 11.5943V24.0479C33 24.9281 32.2683 25.6422 31.3664 25.6422H6.63357C5.73169 25.6422 5 24.9281 5 24.0479V11.5943C5 10.7141 5.73169 10 6.63357 10Z" stroke="white" stroke-linecap="round" stroke-linejoin="round"/>
<path d="M21 18.5215C21 17.027 18.1163 17.1246 18.1163 16.2223C18.1163 15.7855 18.5536 15.5722 19.0609 15.5722C19.9139 15.5722 20.0658 16.0958 20.4522 16.0958C20.7258 16.0958 20.8575 15.9312 20.8575 15.7468C20.8575 15.318 20.1771 14.9935 19.5247 14.8811V14.4673C19.5247 14.3434 19.4732 14.2245 19.3814 14.1369C19.2897 14.0492 19.1653 14 19.0356 14C18.9059 14 18.7814 14.0492 18.6897 14.1369C18.598 14.2245 18.5465 14.3434 18.5465 14.4673V14.8957C17.8351 15.0503 17.2233 15.5218 17.2233 16.2902C17.2233 17.7257 20.1066 17.6677 20.1066 18.6759C20.1066 19.0252 19.7108 19.3745 19.0609 19.3745C18.0861 19.3745 17.7613 18.7441 17.3654 18.7441C17.1725 18.7441 17 18.8992 17 19.1329C17 19.5042 17.6514 19.9511 18.5471 20.0759L18.5465 20.0789V20.5458C18.5501 20.6674 18.6033 20.7829 18.6947 20.8677C18.786 20.9526 18.9084 21 19.0358 21C19.1632 21 19.2855 20.9526 19.3769 20.8677C19.4683 20.7829 19.5214 20.6674 19.5251 20.5458V20.0789C19.5251 20.0734 19.5222 20.0691 19.5218 20.0642C20.3278 19.9205 21 19.4185 21 18.5215Z" fill="white"/>
<path d="M24.5 17.5C24.5 20.2214 22.0794 22.5 19 22.5C15.9206 22.5 13.5 20.2214 13.5 17.5C13.5 14.7786 15.9206 12.5 19 12.5C22.0794 12.5 24.5 14.7786 24.5 17.5Z" stroke="white"/>
</svg>
