<svg width="37" height="39" viewBox="0 0 37 39" fill="none" xmlns="http://www.w3.org/2000/svg">
<path d="M29.3807 16.5712L19.7973 7.5128C19.7927 7.50871 19.7883 7.5043 19.7842 7.4996C19.4313 7.17813 18.9715 7 18.4946 7C18.0177 7 17.5579 7.17813 17.2051 7.4996L17.1919 7.5128L7.61932 16.5712C7.42406 16.7511 7.26819 16.9696 7.16159 17.2129C7.05498 17.4563 6.99996 17.7191 7 17.9849V29.0798C7 29.5891 7.20193 30.0775 7.56138 30.4376C7.92082 30.7977 8.40833 31 8.91667 31H14.6667C15.175 31 15.6625 30.7977 16.022 30.4376C16.3814 30.0775 16.5833 29.5891 16.5833 29.0798V23.3193H20.4167V29.0798C20.4167 29.5891 20.6186 30.0775 20.978 30.4376C21.3375 30.7977 21.825 31 22.3333 31H28.0833C28.5917 31 29.0792 30.7977 29.4386 30.4376C29.7981 30.0775 30 29.5891 30 29.0798V17.9849C30 17.7191 29.945 17.4563 29.8384 17.2129C29.7318 16.9696 29.5759 16.7511 29.3807 16.5712ZM28.0833 29.0798H22.3333V23.3193C22.3333 22.8101 22.1314 22.3217 21.772 21.9616C21.4125 21.6015 20.925 21.3992 20.4167 21.3992H16.5833C16.075 21.3992 15.5875 21.6015 15.228 21.9616C14.8686 22.3217 14.6667 22.8101 14.6667 23.3193V29.0798H8.91667V17.9849L8.92984 17.9729L18.5 8.91812L28.0714 17.9705L28.0845 17.9825L28.0833 29.0798Z" fill="white"/>
</svg>
