<svg width="37" height="39" viewBox="0 0 37 39" fill="none" xmlns="http://www.w3.org/2000/svg">
<path d="M29.3964 20.0249C29.2413 21.9743 28.5298 23.8381 27.3466 25.3951C26.1633 26.952 24.558 28.1365 22.7214 28.808C20.8847 29.4794 18.8939 29.6095 16.9855 29.1828C15.0771 28.7561 13.3313 27.7905 11.9555 26.4008C10.5797 25.0111 9.63173 23.2557 9.22423 21.3431C8.81673 19.4305 8.96683 17.4411 9.65668 15.6113C10.3465 13.7815 11.5472 12.1882 13.1159 11.0207C14.6846 9.85311 16.5556 9.16043 18.5064 9.0249" stroke="white" stroke-width="2" stroke-linecap="round" stroke-linejoin="round"/>
<path d="M23.5978 20.9271C23.3141 21.6575 22.8527 22.3057 22.2555 22.813C21.6583 23.3202 20.944 23.6706 20.1773 23.8325C19.4106 23.9943 18.6157 23.9625 17.8644 23.74C17.1131 23.5174 16.4291 23.111 15.8743 22.5577C15.3195 22.0043 14.9114 21.3214 14.6869 20.5707C14.4624 19.8199 14.4286 19.0251 14.5884 18.258C14.7483 17.4909 15.0969 16.7757 15.6026 16.1772C16.1084 15.5787 16.7553 15.1157 17.485 14.83M19.2135 19.2143L23.1421 15.2857M23.1421 15.2857L26.285 16.0714L29.4278 12.9286L26.285 12.1429L25.4993 9L22.3564 12.1429L23.1421 15.2857Z" stroke="white" stroke-width="2" stroke-linecap="round" stroke-linejoin="round"/>
</svg>
