<svg width="37" height="39" viewBox="0 0 37 39" fill="none" xmlns="http://www.w3.org/2000/svg">
<path d="M9 17H28M9 17V28C9 28.2652 9.10536 28.5196 9.29289 28.7071C9.48043 28.8946 9.73478 29 10 29H27C27.2652 29 27.5196 28.8946 27.7071 28.7071C27.8946 28.5196 28 28.2652 28 28V17M9 17V12.5C9 12.2348 9.10536 11.9804 9.29289 11.7929C9.48043 11.6054 9.73478 11.5 10 11.5H27C27.2652 11.5 27.5196 11.6054 27.7071 11.7929C27.8946 11.9804 28 12.2348 28 12.5V17" stroke="white" stroke-width="1.5" stroke-linejoin="round"/>
<path d="M14.5 23L17.5 26L23.5 20" stroke="white" stroke-width="1.5" stroke-linecap="round" stroke-linejoin="round"/>
<path d="M14.5 10V14M22.5 10V14" stroke="white" stroke-width="1.5" stroke-linecap="round"/>
</svg>
