<svg width="37" height="39" viewBox="0 0 37 39" fill="none" xmlns="http://www.w3.org/2000/svg">
<path d="M19.1568 15.5191V16.9158M15.9803 25.0333C16.671 26.2547 17.9947 26.7091 18.9434 26.7091C19.8921 26.7091 22.0505 26.3399 22.0505 24.1822C22.0505 22.0245 19.2669 21.8257 19.2669 21.8257L19.0149 21.7963C19.0149 21.7963 16.1629 21.5975 16.1629 19.4398C16.1629 17.8198 17.3775 17.2087 18.3857 17.004C18.9653 16.8864 19.5676 16.9099 20.1343 17.0794C20.7049 17.2498 21.2903 17.5936 21.7438 18.3947M19.2312 28.0999V26.7032M23.0895 15.3634L22.7938 11.1832L27.2861 10.8845M25.2468 27.7228C28.5166 24.4956 28.6943 19.3722 25.7807 15.9383M19.1211 32.999C22.1725 33.0382 25.2379 31.9089 27.566 29.6112C32.1447 25.0921 32.1447 17.7659 27.566 13.2469M11.9732 26.8815C9.28786 23.4535 9.53794 18.5084 12.7244 15.3634M10.6265 32.093L15.1477 31.8266L14.8698 27.4016M19.9933 10.0676C16.5856 9.70329 13.0459 10.811 10.434 13.3899C5.85532 17.9089 5.85532 25.2351 10.434 29.7542" stroke="white" stroke-width="1.5" stroke-linecap="round" stroke-linejoin="round"/>
</svg>
