<svg width="32" height="32" viewBox="0 0 32 32" fill="none" xmlns="http://www.w3.org/2000/svg">
<path d="M27.1321 20.0635L25.3415 18.2358C24.9187 18.5072 24.3389 18.5072 23.9161 18.2358L17.8301 24.448C17.9646 24.6638 18.0351 24.9155 18.0351 25.1771C18.0351 25.4386 17.9646 25.6904 17.8301 25.9062L19.6206 27.7339C19.8321 27.5965 20.0787 27.5246 20.3349 27.5246C20.5912 27.5246 20.8378 27.5965 21.0493 27.7339L27.1353 21.5217C26.863 21.0803 26.863 20.5082 27.1353 20.0668L27.1321 20.0635ZM23.474 23.7712L23.253 23.9968C23.253 23.9968 23.237 24.0066 23.2306 23.9968L23.0801 23.8431C22.9744 23.8987 22.859 23.9183 22.7341 23.902C22.6092 23.8823 22.5035 23.83 22.4106 23.7352L22.2408 23.5619C22.2408 23.5619 22.2344 23.5521 22.2408 23.5456L22.4747 23.3069C22.4747 23.3069 22.4843 23.3004 22.4907 23.3069L22.6636 23.4769C22.7117 23.526 22.7661 23.5521 22.827 23.5489C22.8879 23.5489 22.9391 23.526 22.9776 23.4835C23.0192 23.441 23.0384 23.3886 23.0384 23.3233C23.0384 23.2611 23.0128 23.2055 22.9679 23.163C22.9231 23.1205 22.8815 23.0911 22.8334 23.0813C22.7854 23.0715 22.7213 23.0748 22.6444 23.0944L22.3177 23.1892C22.212 23.2219 22.1095 23.2317 22.0134 23.2154C21.9173 23.199 21.8276 23.1467 21.7443 23.0617C21.6482 22.9636 21.5906 22.8524 21.5746 22.7282C21.5554 22.604 21.5746 22.483 21.6322 22.3718L21.4817 22.2181C21.4817 22.2181 21.4753 22.2051 21.4817 22.1953L21.7027 21.9697C21.7027 21.9697 21.7155 21.9631 21.7219 21.9697L21.8693 22.1201C21.9782 22.0612 22.0967 22.0383 22.228 22.0579C22.3561 22.0776 22.4683 22.1331 22.5611 22.228L22.6572 22.326C22.6572 22.326 22.6636 22.3391 22.6572 22.3457L22.4266 22.5811C22.4266 22.5811 22.417 22.5843 22.4074 22.5811L22.3113 22.483C22.2665 22.4372 22.212 22.4143 22.1479 22.4143C22.0839 22.4143 22.0294 22.4339 21.9878 22.4764C21.9461 22.5189 21.9237 22.5745 21.9269 22.6399C21.9301 22.7053 21.9525 22.7576 21.9942 22.7969C22.0454 22.8492 22.1255 22.8622 22.228 22.8328C22.2633 22.823 22.3177 22.8099 22.3914 22.787C22.4651 22.7642 22.5323 22.7445 22.5932 22.7249C22.7149 22.689 22.8302 22.6857 22.9359 22.7217C23.0416 22.7576 23.1377 22.8165 23.2242 22.9048C23.3203 23.0028 23.3747 23.114 23.3876 23.2415C23.4036 23.369 23.3812 23.4867 23.3235 23.5979L23.4708 23.7483C23.4708 23.7483 23.4772 23.7614 23.4708 23.7679L23.474 23.7712Z" fill="white"/>
<path d="M31.0174 20.7302L24.6912 14.2728C24.5759 14.1551 24.3869 14.1551 24.2716 14.2728L13.9478 24.8106C13.8325 24.9283 13.8325 25.1212 13.9478 25.2389L20.2741 31.6963C20.3894 31.814 20.5784 31.814 20.6937 31.6963L31.0174 21.1585C31.1328 21.0408 31.1328 20.8479 31.0174 20.7302ZM27.7406 20.2561C27.5997 20.4 27.5228 20.5896 27.5228 20.7923C27.5228 20.995 27.5997 21.1847 27.7406 21.3285V21.7568L21.2798 28.3515H20.8602C20.5687 28.054 20.0979 28.054 19.8064 28.3515H19.3868L17.2214 26.1413V25.713C17.5129 25.4155 17.5129 24.9348 17.2214 24.6373V24.209L23.6822 17.6143H24.1018C24.2428 17.7582 24.4285 17.8367 24.6271 17.8367C24.8257 17.8367 25.0115 17.7582 25.1525 17.6143H25.5721L27.7374 19.8245V20.2528L27.7406 20.2561Z" fill="white"/>
<path d="M14.0824 18.8666C14.4892 18.8176 14.6622 18.8111 14.9089 19.138L15.4566 19.6971C15.636 19.8802 16.1036 20.3543 16.2766 20.5341C16.283 20.7139 16.2926 20.8905 16.2702 21.0997C16.0684 21.1226 15.8922 21.1128 15.7161 21.1063C15.5431 20.9297 15.0754 20.4524 14.896 20.2693L14.3483 19.7102C14.028 19.4584 14.0344 19.2786 14.0824 18.8666Z" fill="white"/>
<path d="M13.0575 19.913C13.4643 19.864 13.6373 19.8574 13.884 20.1844L14.4317 20.7435C14.6111 20.9266 15.0787 21.4007 15.2517 21.5805C15.2581 21.7603 15.2677 21.9369 15.2453 22.1461C15.0435 22.169 14.8673 22.1592 14.6912 22.1527C14.5182 21.9761 14.0505 21.4988 13.8711 21.3157L13.3234 20.7566C13.0031 20.5048 13.0095 20.325 13.0575 19.913Z" fill="white"/>
<path d="M19.5312 13.3017C19.938 13.2527 20.111 13.2461 20.3576 13.5731L20.9053 14.1322C21.0847 14.3153 21.5524 14.7893 21.7253 14.9692C21.7317 15.149 21.7414 15.3256 21.7189 15.5348C21.5171 15.5577 21.341 15.5479 21.1648 15.5413C20.9918 15.3648 20.5242 14.8874 20.3448 14.7043L19.797 14.1452C19.4767 13.8935 19.4831 13.7137 19.5312 13.3017Z" fill="white"/>
<path d="M18.5058 14.3481C18.9126 14.299 19.0856 14.2925 19.3322 14.6195L19.8799 15.1786C20.0593 15.3616 20.527 15.8357 20.7 16.0156C20.7064 16.1954 20.716 16.3719 20.6935 16.5812C20.4917 16.6041 20.3156 16.5943 20.1394 16.5877C19.9664 16.4112 19.4988 15.9338 19.3194 15.7507L18.7717 15.1916C18.4513 14.9399 18.4577 14.7601 18.5058 14.3481Z" fill="white"/>
<path d="M15.812 12.4846L17.3271 14.0246C17.3848 14.0834 17.436 14.0867 17.4809 14.0409L19.4028 12.0792C19.4476 12.0334 19.4412 11.9811 19.3867 11.9223L17.8716 10.3823L15.8152 12.4814L15.812 12.4846Z" fill="white"/>
<path d="M11.597 15.4927L5.08181 8.81633L9.43491 9.65006L8.63732 5.1904L15.1782 11.8407L17.2346 9.74161L7.66676 0.0343302C7.62192 -0.0114434 7.57707 -0.0114434 7.53223 0.0343302L5.44057 2.16934C5.39572 2.21512 5.37971 2.28051 5.38932 2.35898L6.0876 6.23012L2.29506 5.51736C2.21498 5.50428 2.15412 5.5239 2.10928 5.56967L0.0336332 7.68834C-0.0112111 7.73411 -0.0112111 7.77988 0.0336332 7.82566L9.54381 17.5885L11.6002 15.4895L11.597 15.4927Z" fill="white"/>
<path d="M11.834 19.8053L13.7559 17.8436C13.8008 17.7978 13.7944 17.7455 13.7399 17.6866L12.2312 16.1401L10.1748 18.2392L11.6835 19.7857C11.7411 19.8445 11.7924 19.8478 11.8372 19.802L11.834 19.8053Z" fill="white"/>
</svg>
