<svg width="552" height="400" viewBox="0 0 552 400" fill="none" xmlns="http://www.w3.org/2000/svg">
<g filter="url(#filter0_d_105_2656)">
<rect x="4" width="544" height="392" rx="25" fill="white"/>
<rect x="4.5" y="0.5" width="543" height="391" rx="24.5" stroke="#E4D5EC"/>
</g>
<path d="M5 353.5L69.5 343L123.5 333L162.5 325L214.5 313L254.5 301L292.5 288L331.5 270L367.5 257L415.5 245L444.5 239L477.5 234L518.5 227.5L541.5 219.5L546 217.5V340V355.5V369.5L545.5 372.5C545.5 372.5 545.527 372.693 545.517 372.868C545.598 373.211 545 376 545 376L543.5 379L542.5 380.5L541 382.5L536.5 387L531 390L526.5 391.5H521.969H25L18.5 389.5L13.5 387L9 382L6 375L5 368.5V361V353.5Z" fill="#F6F0F9" stroke="#F6F0F9"/>
<defs>
<filter id="filter0_d_105_2656" x="0" y="0" width="552" height="400" filterUnits="userSpaceOnUse" color-interpolation-filters="sRGB">
<feFlood flood-opacity="0" result="BackgroundImageFix"/>
<feColorMatrix in="SourceAlpha" type="matrix" values="0 0 0 0 0 0 0 0 0 0 0 0 0 0 0 0 0 0 127 0" result="hardAlpha"/>
<feOffset dy="4"/>
<feGaussianBlur stdDeviation="2"/>
<feComposite in2="hardAlpha" operator="out"/>
<feColorMatrix type="matrix" values="0 0 0 0 0 0 0 0 0 0 0 0 0 0 0 0 0 0 0.25 0"/>
<feBlend mode="normal" in2="BackgroundImageFix" result="effect1_dropShadow_105_2656"/>
<feBlend mode="normal" in="SourceGraphic" in2="effect1_dropShadow_105_2656" result="shape"/>
</filter>
</defs>
</svg>
